<svg id="Layer_1" data-name="Layer 1" xmlns="http://www.w3.org/2000/svg" viewBox="0 0 709.32 173.91"><defs><style>.cls-1{fill:#231f20;}</style></defs><path class="cls-1" d="M117.07,175.63c0-8-1.93-16.63-6.23-23.42-9.84-15.39-24.77-16.07-41.18-16.07H46V216H71.13c7.81,0,16.07,0,23.42-2.94,15.39-6.11,22.52-21.72,22.52-37.44Zm-23.42-.34c0,6.56-1.93,13.91-7.24,18.21-4.08,3.28-8.49,3.85-13.58,3.85h-4V154.81h1.92c5,0,10.86.11,15.84,3.62,5.32,3.85,7,10.63,7,16.86ZM192.3,216l-29.19-79.87H139L109.82,216H133l4.52-14h27.15l4.87,14ZM159,184.9H143.2c2.71-9.16,5.43-18.21,7.92-27.38,2.49,9.17,5.2,18.22,7.92,27.38Zm79.08-30.2V136.14H182.23V154.7H199V216h22.52V154.7ZM310.63,216l-29.18-79.87h-24.1L228.16,216h23.19l4.53-14H283l4.86,14ZM277.37,184.9H261.53c2.72-9.16,5.43-18.21,7.92-27.38,2.49,9.17,5.21,18.22,7.92,27.38ZM417.65,216V197.24h-25v-61.1H369.9V216Zm85.19,0-29.19-79.87h-24.1L420.36,216h23.19l4.53-14h27.15l4.87,14ZM469.58,184.9H453.74c2.71-9.16,5.43-18.21,7.92-27.38,2.48,9.17,5.2,18.22,7.92,27.38Zm97.18,9.17c0-7.24-2.49-13.69-8.71-17.76a30.71,30.71,0,0,0-6.23-2.83c1-.8,2.15-1.48,3.17-2.27a18.65,18.65,0,0,0,6.45-14.48,21.33,21.33,0,0,0-2.26-9.84C554,136.82,543.11,136.14,533,136.14H505.33V216h26.81c15.84,0,34.62-1.24,34.62-21.94Zm-25.91-34.28c0,5.88-4.53,7.69-9.62,7.69h-4.41V152.21h4.75c4.87,0,9.28,2,9.28,7.58Zm3.39,31.9c0,6.79-5.09,8.26-10.74,8.26h-6.68V183.66h7.35c5.44,0,10.07,1.7,10.07,8Z" transform="translate(-42.96 -42.1)"/><path class="cls-1" d="M105,121V98.45c-5.43,4.41-11.31,7.69-18.55,7.69-12.11,0-19.92-10.3-19.92-21.84,0-12,8.38-22.17,20.82-22.17,6.9,0,12.33,3.28,17.31,7.92l.11-23.64c-5.54-3.29-12.1-4.31-18.55-4.31C61.18,42.1,43,59.19,43,84.53c0,12.45,5,24.66,14.48,32.81,7.58,6.45,16.75,8.71,26.59,8.71A41.85,41.85,0,0,0,105,121ZM132.34,124V44.14h-23V124Zm83.38-79.87h-23.2L176,89.4,158.13,44.14h-23.3L167.75,124h15.38l32.59-79.87ZM241.06,124V44.14h-23V124ZM306.68,121V98.45c-5.43,4.41-11.32,7.69-18.56,7.69-12.1,0-19.91-10.3-19.91-21.84,0-12,8.37-22.17,20.82-22.17,6.9,0,12.33,3.28,17.31,7.92l.11-23.64c-5.54-3.29-12.11-4.31-18.55-4.31-25,0-43.22,17.09-43.22,42.43,0,12.45,5,24.66,14.48,32.81,7.58,6.45,16.74,8.71,26.59,8.71A41.88,41.88,0,0,0,306.68,121ZM441.07,83.63c0-8-1.93-16.63-6.23-23.42C425,44.82,410.07,44.14,393.66,44.14H370V124h25.11c7.81,0,16.07,0,23.42-2.94,15.39-6.11,22.52-21.72,22.52-37.44Zm-23.42-.34c0,6.56-1.93,13.91-7.24,18.21-4.08,3.28-8.49,3.85-13.58,3.85h-4V62.81h1.92c5,0,10.86.11,15.84,3.62,5.32,3.85,7,10.63,7,16.86ZM492.31,124V105.46H466V93.13h22.18V74.35H466V62.81H491.3V44.14H444.46V124Zm62.45-25.79c0-30.32-34.84-19.8-34.84-32.36,0-4.52,4.41-6.56,8.37-6.56,5.88,0,11.43,3.51,16,6.9l7.7-16C543,44.82,536.89,42.1,526,42.1c-16.29,0-28.29,8.72-28.29,25.69,0,8.48,3.85,15.5,11.66,19a69.54,69.54,0,0,0,11.76,3.62c5.09,1.36,11.43,2.61,11.43,9.28,0,5.66-4.75,8.49-10,8.49-6.56,0-13.8-4.87-18.78-8.72l-7.8,16.64c9.16,6.56,17.31,10,28.85,10,9.05,0,16.85-2.37,23.08-9.28,4.75-5.31,6.78-11.42,6.78-18.55Zm27,25.79V44.14h-23V124Zm85.87-42.87V78.2h-40V95.84H644.8c-1.35,7.81-7.24,12.34-16.06,12.34-12.33,0-19.91-9.05-19.91-23.88,0-14.36,7.24-23.41,18.89-23.41,7.24,0,11.65,2.82,15.84,10l20.36-9.62c-2.71-4.41-3.84-6-6.1-8.37-6.91-7.12-17-10.75-29.53-10.75-26.14,0-42.77,16.64-42.77,42.54,0,25.12,16.41,41.41,41.64,41.41,26.47,0,40.5-15.61,40.5-44.91ZM752.28,124V44.14H729.77l.68,46.5L694.7,44.14H672.18V124h22.74l-.79-47.4L729.66,124Z" transform="translate(-42.96 -42.1)"/></svg>