<?xml version="1.0" encoding="utf-8"?>
<!-- Generator: Adobe Illustrator 26.3.1, SVG Export Plug-In . SVG Version: 6.00 Build 0)  -->
<svg version="1.1" id="Layer_1" xmlns="http://www.w3.org/2000/svg" xmlns:xlink="http://www.w3.org/1999/xlink" x="0px" y="0px"
	 viewBox="0 0 709.3 173.9" style="enable-background:new 0 0 709.3 173.9;" xml:space="preserve">
<style type="text/css">
	.st0{fill:#FFFFFF;stroke:#000000;stroke-miterlimit:10;}
</style>
<path class="st0" d="M74.1,133.5c0-8-1.9-16.6-6.2-23.4C58,94.7,43.1,94,26.7,94H3v79.9h25.1c7.8,0,16.1,0,23.4-2.9
	C67,164.9,74.1,149.2,74.1,133.5L74.1,133.5z M50.7,133.2c0,6.6-1.9,13.9-7.2,18.2c-4.1,3.3-8.5,3.9-13.6,3.9h-4v-42.5h1.9
	c5,0,10.9,0.1,15.8,3.6C48.9,120.2,50.6,127,50.7,133.2L50.7,133.2z M149.3,173.9L120.2,94H96l-29.2,79.9H90l4.5-14h27.1l4.9,14
	H149.3z M116,142.8h-15.8c2.7-9.2,5.4-18.2,7.9-27.4C110.7,124.6,113.4,133.6,116,142.8L116,142.8z M195.1,112.6V94h-55.9v18.6H156
	v61.3h22.5v-61.3H195.1z M267.7,173.9L238.5,94h-24.1l-29.2,79.9h23.2l4.5-14H240l4.9,14H267.7z M234.4,142.8h-15.8
	c2.7-9.2,5.4-18.2,7.9-27.4C229,124.6,231.7,133.6,234.4,142.8L234.4,142.8z M374.7,173.9v-18.8h-25V94h-22.8v79.9H374.7z
	 M459.9,173.9L430.7,94h-24.1l-29.2,79.9h23.2l4.5-14h27.1l4.9,14H459.9z M426.6,142.8h-15.8c2.7-9.2,5.4-18.2,7.9-27.4
	C421.2,124.6,423.9,133.6,426.6,142.8L426.6,142.8z M523.8,152c0-7.2-2.5-13.7-8.7-17.8c-2-1.2-4.1-2.1-6.2-2.8
	c1-0.8,2.2-1.5,3.2-2.3c4.2-3.6,6.6-8.9,6.5-14.5c0-3.4-0.7-6.8-2.3-9.8C511,94.7,500.1,94,490,94h-27.7v79.9h26.8
	C505,173.9,523.8,172.7,523.8,152L523.8,152z M497.9,117.7c0,5.9-4.5,7.7-9.6,7.7h-4.4v-15.3h4.8
	C493.5,110.1,497.9,112.1,497.9,117.7L497.9,117.7z M501.3,149.6c0,6.8-5.1,8.3-10.7,8.3h-6.7v-16.3h7.3
	C496.7,141.6,501.3,143.3,501.3,149.6L501.3,149.6z"/>
<path class="st0" d="M62,78.9V56.3C56.6,60.8,50.7,64,43.5,64c-12.1,0-19.9-10.3-19.9-21.8c0-12,8.4-22.2,20.8-22.2
	c6.9,0,12.3,3.3,17.3,7.9l0.1-23.6C56.3,1,49.7,0,43.3,0C18.2,0,0,17.1,0,42.4c0,12.4,5,24.7,14.5,32.8c7.6,6.4,16.7,8.7,26.6,8.7
	C48.4,84.1,55.6,82.4,62,78.9z M89.4,81.9V2h-23v79.9H89.4z M172.8,2h-23.2L133,47.3L115.2,2H91.9l32.9,79.9h15.4L172.8,2z
	 M198.1,81.9V2h-23v79.9H198.1z M263.7,78.9V56.3c-5.4,4.4-11.3,7.7-18.6,7.7c-12.1,0-19.9-10.3-19.9-21.8c0-12,8.4-22.2,20.8-22.2
	c6.9,0,12.3,3.3,17.3,7.9l0.1-23.6C257.9,1,251.4,0,244.9,0c-25,0-43.2,17.1-43.2,42.4c0,12.4,5,24.7,14.5,32.8
	c7.6,6.4,16.7,8.7,26.6,8.7C250.1,84.1,257.3,82.4,263.7,78.9z M398.1,41.5c0-8-1.9-16.6-6.2-23.4C382,2.7,367.1,2,350.7,2H327v79.9
	h25.1c7.8,0,16.1,0,23.4-2.9C391,72.8,398.1,57.2,398.1,41.5L398.1,41.5z M374.7,41.2c0,6.6-1.9,13.9-7.2,18.2
	c-4.1,3.3-8.5,3.8-13.6,3.8h-4V20.7h1.9c5,0,10.9,0.1,15.8,3.6C373,28.2,374.6,35,374.7,41.2L374.7,41.2z M449.4,81.9V63.4H423V51
	h22.2V32.2H423V20.7h25.3V2h-46.8v79.9H449.4z M511.8,56.1c0-30.3-34.8-19.8-34.8-32.4c0-4.5,4.4-6.6,8.4-6.6c5.9,0,11.4,3.5,16,6.9
	l7.7-16C500,2.7,493.9,0,483,0c-16.3,0-28.3,8.7-28.3,25.7c0,8.5,3.9,15.5,11.7,19c3.8,1.6,7.7,2.8,11.8,3.6
	c5.1,1.4,11.4,2.6,11.4,9.3c0,5.7-4.8,8.5-10,8.5c-6.6,0-13.8-4.9-18.8-8.7L453,74c9.2,6.6,17.3,10,28.9,10c9,0,16.8-2.4,23.1-9.3
	C509.7,69.4,511.7,63.3,511.8,56.1L511.8,56.1z M538.8,81.9V2h-23v79.9H538.8z M624.7,39v-2.9h-40v17.6h17.2
	c-1.3,7.8-7.2,12.3-16.1,12.3c-12.3,0-19.9-9.1-19.9-23.9c0-14.4,7.2-23.4,18.9-23.4c7.2,0,11.7,2.8,15.8,10l20.4-9.6
	c-2.7-4.4-3.8-6-6.1-8.4c-6.9-7.1-17-10.8-29.5-10.8c-26.1,0-42.8,16.6-42.8,42.5c0,25.1,16.4,41.4,41.6,41.4
	C610.7,84,624.7,68.4,624.7,39L624.7,39z M709.3,81.9V2h-22.5l0.7,46.5L651.7,2h-22.5v79.9H652l-0.8-47.4l35.5,47.4H709.3z"/>
</svg>
