<?xml version="1.0" encoding="UTF-8"?><svg id="Layer_1" xmlns="http://www.w3.org/2000/svg" viewBox="0 0 28.35 28.35"><defs><style>.cls-1{fill:#fff;}.cls-2{fill:none;stroke:#000;stroke-miterlimit:10;stroke-width:2.2px;}</style></defs><line class="cls-2" x1="9.41" y1="14.17" x2="18.94" y2="8.33"/><g><circle class="cls-1" cx="18.94" cy="8.33" r="1.82"/><path d="M18.94,7.61c.4,0,.72,.32,.72,.72s-.32,.72-.72,.72-.72-.32-.72-.72,.32-.72,.72-.72m0-2.2c-1.61,0-2.92,1.31-2.92,2.92s1.31,2.92,2.92,2.92,2.92-1.31,2.92-2.92-1.31-2.92-2.92-2.92h0Z"/></g><line class="cls-2" x1="9.41" y1="14.17" x2="18.94" y2="20.02"/><g><circle class="cls-1" cx="18.94" cy="20.02" r="1.82"/><path d="M18.94,19.3c.4,0,.72,.32,.72,.72s-.32,.72-.72,.72-.72-.32-.72-.72,.32-.72,.72-.72m0-2.2c-1.61,0-2.92,1.31-2.92,2.92s1.31,2.92,2.92,2.92,2.92-1.31,2.92-2.92-1.31-2.92-2.92-2.92h0Z"/></g><g><circle class="cls-1" cx="9.41" cy="14.17" r="1.82"/><path d="M9.41,13.45c.4,0,.72,.32,.72,.72s-.32,.72-.72,.72-.72-.32-.72-.72,.32-.72,.72-.72m0-2.2c-1.61,0-2.92,1.31-2.92,2.92s1.31,2.92,2.92,2.92,2.92-1.31,2.92-2.92-1.31-2.92-2.92-2.92h0Z"/></g></svg>