<?xml version="1.0" encoding="UTF-8"?><svg id="Layer_1" xmlns="http://www.w3.org/2000/svg" viewBox="0 0 28.35 28.35"><defs><style>.cls-1{fill:#fff;}.cls-2{fill:none;stroke:#000;stroke-miterlimit:10;stroke-width:2.2px;}</style></defs><line class="cls-2" x1="4.23" y1="18.11" x2="10.83" y2="12.27"/><line class="cls-2" x1="16.68" y1="17.11" x2="24.09" y2="10.24"/><line class="cls-2" x1="10.83" y1="12.27" x2="16.68" y2="17.11"/><g><circle class="cls-1" cx="4.23" cy="18.11" r="1.82"/><path d="M4.23,17.39c.4,0,.72,.32,.72,.72s-.32,.72-.72,.72-.72-.32-.72-.72,.32-.72,.72-.72m0-2.2c-1.61,0-2.92,1.31-2.92,2.92s1.31,2.92,2.92,2.92,2.92-1.31,2.92-2.92-1.31-2.92-2.92-2.92h0Z"/></g><g><circle class="cls-1" cx="10.83" cy="12.27" r="1.82"/><path d="M10.83,11.55c.4,0,.72,.32,.72,.72s-.32,.72-.72,.72-.72-.32-.72-.72,.32-.72,.72-.72m0-2.2c-1.61,0-2.92,1.31-2.92,2.92s1.31,2.92,2.92,2.92,2.92-1.31,2.92-2.92-1.31-2.92-2.92-2.92h0Z"/></g><g><path class="cls-1" d="M16.68,18.93c-1,0-1.82-.82-1.82-1.82s.82-1.82,1.82-1.82,1.82,.82,1.82,1.82-.82,1.82-1.82,1.82Z"/><path d="M16.68,16.39c.4,0,.72,.32,.72,.72s-.32,.72-.72,.72-.72-.32-.72-.72,.32-.72,.72-.72m0-2.2c-1.61,0-2.92,1.31-2.92,2.92s1.31,2.92,2.92,2.92,2.92-1.31,2.92-2.92-1.31-2.92-2.92-2.92h0Z"/></g><g><circle class="cls-1" cx="24.09" cy="10.24" r="1.82"/><path d="M24.09,9.51c.4,0,.72,.32,.72,.72s-.32,.72-.72,.72-.72-.32-.72-.72,.32-.72,.72-.72m0-2.2c-1.61,0-2.92,1.31-2.92,2.92s1.31,2.92,2.92,2.92,2.92-1.31,2.92-2.92-1.31-2.92-2.92-2.92h0Z"/></g></svg>